<svg width="48" height="48" viewBox="0 0 48 48" fill="none" xmlns="http://www.w3.org/2000/svg">
<path d="M26.7143 24.4286C26.7143 26.317 25.1741 27.8571 23.2857 27.8571C21.3973 27.8571 19.8571 26.317 19.8571 24.4286C19.8571 22.5402 21.3973 21 23.2857 21C25.1741 21 26.7143 22.5402 26.7143 24.4286ZM28.5625 24.4286C28.5625 21.5089 26.2054 19.1518 23.2857 19.1518C20.3661 19.1518 18.0089 21.5089 18.0089 24.4286C18.0089 27.3482 20.3661 29.7054 23.2857 29.7054C26.2054 29.7054 28.5625 27.3482 28.5625 24.4286ZM30.0089 18.9375C30.0089 18.2545 29.4598 17.7054 28.7768 17.7054C28.0938 17.7054 27.5446 18.2545 27.5446 18.9375C27.5446 19.6205 28.0938 20.1696 28.7768 20.1696C29.4598 20.1696 30.0089 19.6205 30.0089 18.9375ZM23.2857 15.9911C24.7857 15.9911 28 15.8705 29.3527 16.4062C29.8214 16.5937 30.1696 16.8214 30.5313 17.183C30.8929 17.5446 31.1205 17.8929 31.308 18.3616C31.8438 19.7143 31.7232 22.9286 31.7232 24.4286C31.7232 25.9286 31.8438 29.1429 31.308 30.4955C31.1205 30.9643 30.8929 31.3125 30.5313 31.6741C30.1696 32.0357 29.8214 32.2634 29.3527 32.4509C28 32.9866 24.7857 32.8661 23.2857 32.8661C21.7857 32.8661 18.5714 32.9866 17.2188 32.4509C16.75 32.2634 16.4018 32.0357 16.0402 31.6741C15.6786 31.3125 15.4509 30.9643 15.2634 30.4955C14.7277 29.1429 14.8482 25.9286 14.8482 24.4286C14.8482 22.9286 14.7277 19.7143 15.2634 18.3616C15.4509 17.8929 15.6786 17.5446 16.0402 17.183C16.4018 16.8214 16.75 16.5937 17.2188 16.4062C18.5714 15.8705 21.7857 15.9911 23.2857 15.9911ZM33.5714 24.4286C33.5714 23.0089 33.5848 21.6027 33.5045 20.183C33.4241 18.5357 33.0491 17.0759 31.8438 15.8705C30.6384 14.6652 29.1786 14.2902 27.5312 14.2098C26.1116 14.1295 24.7054 14.1429 23.2857 14.1429C21.8661 14.1429 20.4598 14.1295 19.0402 14.2098C17.3929 14.2902 15.933 14.6652 14.7277 15.8705C13.5223 17.0759 13.1473 18.5357 13.067 20.183C12.9866 21.6027 13 23.0089 13 24.4286C13 25.8482 12.9866 27.2545 13.067 28.6741C13.1473 30.3214 13.5223 31.7812 14.7277 32.9866C15.933 34.192 17.3929 34.567 19.0402 34.6473C20.4598 34.7277 21.8661 34.7143 23.2857 34.7143C24.7054 34.7143 26.1116 34.7277 27.5312 34.6473C29.1786 34.567 30.6384 34.192 31.8438 32.9866C33.0491 31.7812 33.4241 30.3214 33.5045 28.6741C33.5848 27.2545 33.5714 25.8482 33.5714 24.4286Z" fill="white"/>
</svg>
