<svg width="48" height="48" viewBox="0 0 48 48" fill="none" xmlns="http://www.w3.org/2000/svg">
<g clip-path="url(#clip0)">
<path d="M30.4286 23.8571C30.4286 27.6339 27.3482 30.7143 23.5714 30.7143C19.7946 30.7143 16.7143 27.6339 16.7143 23.8571C16.7143 20.0804 19.7946 17 23.5714 17C27.3482 17 30.4286 20.0804 30.4286 23.8571ZM34.125 23.8571C34.125 18.0179 29.4107 13.3036 23.5714 13.3036C17.7321 13.3036 13.0179 18.0179 13.0179 23.8571C13.0179 29.6964 17.7321 34.4107 23.5714 34.4107C29.4107 34.4107 34.125 29.6964 34.125 23.8571ZM37.0179 12.875C37.0179 11.5089 35.9196 10.4107 34.5536 10.4107C33.1875 10.4107 32.0893 11.5089 32.0893 12.875C32.0893 14.2411 33.1875 15.3393 34.5536 15.3393C35.9196 15.3393 37.0179 14.2411 37.0179 12.875ZM23.5714 6.98214C26.5714 6.98214 33 6.74107 35.7054 7.8125C36.6429 8.1875 37.3393 8.64285 38.0625 9.36607C38.7857 10.0893 39.2411 10.7857 39.6161 11.7232C40.6875 14.4286 40.4464 20.8571 40.4464 23.8571C40.4464 26.8571 40.6875 33.2857 39.6161 35.9911C39.2411 36.9286 38.7857 37.625 38.0625 38.3482C37.3393 39.0714 36.6429 39.5268 35.7054 39.9018C33 40.9732 26.5714 40.7321 23.5714 40.7321C20.5714 40.7321 14.1429 40.9732 11.4375 39.9018C10.5 39.5268 9.80357 39.0714 9.08036 38.3482C8.35714 37.625 7.90179 36.9286 7.52679 35.9911C6.45536 33.2857 6.69643 26.8571 6.69643 23.8571C6.69643 20.8571 6.45536 14.4286 7.52679 11.7232C7.90179 10.7857 8.35714 10.0893 9.08036 9.36607C9.80357 8.64285 10.5 8.1875 11.4375 7.8125C14.1429 6.74107 20.5714 6.98214 23.5714 6.98214ZM44.1429 23.8571C44.1429 21.0179 44.1696 18.2054 44.0089 15.3661C43.8482 12.0714 43.0982 9.15178 40.6875 6.74107C38.2768 4.33035 35.3571 3.58035 32.0625 3.41964C29.2232 3.25893 26.4107 3.28571 23.5714 3.28571C20.7321 3.28571 17.9196 3.25893 15.0804 3.41964C11.7857 3.58035 8.86607 4.33035 6.45536 6.74107C4.04464 9.15178 3.29464 12.0714 3.13393 15.3661C2.97321 18.2054 3 21.0179 3 23.8571C3 26.6964 2.97321 29.5089 3.13393 32.3482C3.29464 35.6429 4.04464 38.5625 6.45536 40.9732C8.86607 43.3839 11.7857 44.1339 15.0804 44.2946C17.9196 44.4554 20.7321 44.4286 23.5714 44.4286C26.4107 44.4286 29.2232 44.4554 32.0625 44.2946C35.3571 44.1339 38.2768 43.3839 40.6875 40.9732C43.0982 38.5625 43.8482 35.6429 44.0089 32.3482C44.1696 29.5089 44.1429 26.6964 44.1429 23.8571Z" fill="white"/>
</g>
<defs>
<clipPath id="clip0">
<rect width="48" height="48" fill="white"/>
</clipPath>
</defs>
</svg>
