<svg width="320" height="68" viewBox="0 0 320 68" fill="none" xmlns="http://www.w3.org/2000/svg">
<path fill-rule="evenodd" clip-rule="evenodd" d="M2.77699 58.2182H6.38205C6.34827 57.752 6.16225 57.3615 5.82447 57.048C5.48529 56.7351 5.08134 56.5781 4.61306 56.5781C4.15034 56.5781 3.75287 56.7257 3.41924 57.0224C3.08701 57.319 2.87277 57.7174 2.77699 58.2182ZM2.81057 60.0209C2.87211 60.5399 3.08357 60.9439 3.44496 61.2349C3.80542 61.5255 4.28295 61.6703 4.87477 61.6703C5.38885 61.6703 5.96031 61.5208 6.58915 61.2223C7.21798 60.9229 7.60575 60.7734 7.75335 60.7734C8.07494 60.7734 8.33684 60.8729 8.54044 61.0719C8.74358 61.2718 8.84491 61.5278 8.84491 61.8417C8.84491 62.434 8.4354 62.9675 7.61778 63.4439C6.79968 63.9195 5.83723 64.1572 4.73178 64.1572C3.38249 64.1572 2.25669 63.6929 1.35346 62.7643C0.45069 61.8357 0 60.6702 0 59.2689C0 57.8624 0.438197 56.689 1.31552 55.7491C2.1933 54.8098 3.28671 54.3398 4.59528 54.3398C5.8599 54.3398 6.91814 54.7803 7.77047 55.6637C8.62234 56.5465 9.04712 57.626 9.04712 58.9012C9.04712 59.3184 8.95411 59.6084 8.76903 59.7738C8.58255 59.9387 8.22394 60.0209 7.69366 60.0209H2.81057V60.0209Z" fill="white"/>
<path fill-rule="evenodd" clip-rule="evenodd" d="M13.4894 60.9701L11.551 63.3113C11.3419 63.5677 11.1461 63.7518 10.9624 63.862C10.7792 63.9737 10.5802 64.0293 10.3651 64.0293C10.0102 64.0293 9.70152 63.8961 9.44332 63.628C9.18281 63.3603 9.05371 63.0413 9.05371 62.6709C9.05371 62.4602 9.08888 62.272 9.15967 62.1071C9.23001 61.9417 9.38363 61.7254 9.62054 61.4573L11.8981 58.9368L9.98471 56.9795C9.8209 56.8034 9.69458 56.6185 9.60435 56.4251C9.51273 56.2308 9.46785 56.0434 9.46785 55.8603C9.46785 55.496 9.59695 55.1741 9.85376 54.8948C10.1101 54.6159 10.4086 54.4763 10.7463 54.4763C10.9606 54.4763 11.1614 54.5234 11.3474 54.6173C11.5334 54.7117 11.7116 54.8574 11.8805 55.0574L13.5398 56.9968L15.0635 55.1083C15.2209 54.9149 15.4036 54.7579 15.6095 54.6384C15.8145 54.5192 16.0029 54.459 16.1717 54.459C16.5558 54.459 16.8857 54.5949 17.1624 54.8649C17.4387 55.1358 17.577 55.4558 17.577 55.8262C17.577 55.9972 17.5266 56.1822 17.4243 56.3821C17.323 56.5811 17.1731 56.7918 16.976 57.0141L15.1732 58.954L17.3059 61.3891C17.5655 61.6801 17.7362 61.9216 17.8186 62.115C17.8995 62.3084 17.9412 62.5228 17.9412 62.7554C17.9412 63.103 17.8186 63.4024 17.5724 63.6532C17.3276 63.9031 17.0347 64.0293 16.6969 64.0293C16.4656 64.0293 16.255 63.9746 16.0658 63.8667C15.877 63.7593 15.6702 63.5738 15.4444 63.3113L13.4894 60.9701" fill="white"/>
<path fill-rule="evenodd" clip-rule="evenodd" d="M17.9131 59.2537C17.9131 57.8015 18.3448 56.622 19.2082 55.7158C20.0712 54.811 21.2053 54.3574 22.6106 54.3574C23.519 54.3574 24.2556 54.5214 24.8201 54.8493C25.3842 55.1767 25.6664 55.6018 25.6664 56.1264C25.6664 56.4622 25.5586 56.7411 25.3444 56.963C25.1302 57.1858 24.859 57.297 24.5319 57.297C24.3912 57.297 24.1061 57.2274 23.6772 57.0872C23.2487 56.9476 22.8924 56.878 22.6106 56.878C22.0466 56.878 21.5903 57.0914 21.2433 57.5184C20.8972 57.9463 20.7227 58.5077 20.7227 59.2019C20.7227 59.9254 20.9009 60.4939 21.2567 60.9068C21.6121 61.3202 22.0975 61.5267 22.7129 61.5267C23.0109 61.5267 23.3681 61.4571 23.7827 61.3165C24.1978 61.1768 24.4671 61.1077 24.5915 61.1077C24.8909 61.1077 25.1413 61.2236 25.3444 61.4534C25.548 61.6841 25.6498 61.9681 25.6498 62.304C25.6498 62.8113 25.3416 63.2443 24.7271 63.603C24.1117 63.9613 23.3501 64.1412 22.4417 64.1412C21.0985 64.1412 20.0078 63.6895 19.1698 62.7875C18.3323 61.8841 17.9131 60.7065 17.9131 59.2537" fill="white"/>
<path fill-rule="evenodd" clip-rule="evenodd" d="M29.2479 55.2973C29.5413 54.9895 29.8684 54.7681 30.2302 54.6312C30.5916 54.4943 31.0451 54.4257 31.593 54.4257C32.6711 54.4257 33.4943 54.7368 34.0648 55.3571C34.634 55.9779 34.9195 56.8808 34.9195 58.0659V62.0219C34.9195 62.6997 34.8066 63.2042 34.5808 63.5344C34.3549 63.8647 34.0107 64.03 33.5489 64.03C33.0852 64.03 32.7405 63.8647 32.5156 63.5344C32.2898 63.2042 32.1769 62.6997 32.1769 62.0219V58.9025C32.1769 58.1346 32.0631 57.5862 31.834 57.2578C31.6055 56.9313 31.2288 56.7669 30.7045 56.7669C30.2076 56.7669 29.8406 56.9364 29.6037 57.2751C29.3668 57.6147 29.2479 58.1453 29.2479 58.8689V62.0219C29.2479 62.6997 29.1355 63.2042 28.9096 63.5344C28.6838 63.8647 28.3396 64.03 27.8778 64.03C27.4141 64.03 27.0717 63.8647 26.8482 63.5344C26.6261 63.2042 26.5137 62.6997 26.5137 62.0219V52.5722C26.5137 51.8878 26.6261 51.3815 26.8482 51.0503C27.0717 50.72 27.4141 50.5547 27.8778 50.5547C28.3396 50.5547 28.6838 50.7228 28.9096 51.0592C29.1355 51.395 29.2479 51.8995 29.2479 52.5722V55.2973" fill="white"/>
<path fill-rule="evenodd" clip-rule="evenodd" d="M38.8332 59.216C38.8332 59.8938 38.9979 60.4394 39.3251 60.8528C39.6522 61.2662 40.0779 61.4722 40.6031 61.4722C41.1162 61.4722 41.5373 61.2625 41.8635 60.8435C42.1907 60.4249 42.3554 59.8831 42.3554 59.216C42.3554 58.5672 42.1898 58.0375 41.8598 57.6269C41.5304 57.2163 41.1107 57.0117 40.6031 57.0117C40.0844 57.0117 39.6596 57.2154 39.3288 57.6232C38.9988 58.03 38.8332 58.5611 38.8332 59.216ZM42.4395 63.0712C42.1624 63.4127 41.8287 63.6733 41.4354 63.8532C41.0435 64.033 40.6159 64.1222 40.1532 64.1222C38.9858 64.1222 38.0025 63.6579 37.2034 62.7302C36.4052 61.8011 36.0059 60.6417 36.0059 59.2521C36.0059 57.8792 36.4181 56.7231 37.2422 55.7828C38.0664 54.843 39.0705 54.373 40.2555 54.373C40.7182 54.373 41.1282 54.4534 41.4873 54.6122C41.8449 54.7715 42.1624 55.02 42.4395 55.3554C42.5969 55.0644 42.7856 54.8458 43.0064 54.6977C43.2271 54.5491 43.4719 54.4753 43.743 54.4753C44.2002 54.4753 44.5384 54.6374 44.7587 54.9625C44.9785 55.2872 45.0886 55.7907 45.0886 56.4751V62.0202C45.0886 62.698 44.9766 63.2025 44.7541 63.5327C44.531 63.863 44.1937 64.0283 43.743 64.0283C43.4376 64.0283 43.1808 63.9517 42.9721 63.7976C42.7634 63.6434 42.5862 63.4015 42.4395 63.0712V63.0712Z" fill="white"/>
<path fill-rule="evenodd" clip-rule="evenodd" d="M46.8125 62.022V56.4769C46.8125 55.7991 46.9236 55.2965 47.1466 54.9686C47.3701 54.6411 47.7125 54.4772 48.1752 54.4772C48.4519 54.4772 48.6967 54.55 48.9119 54.6953C49.1261 54.8401 49.3149 55.0611 49.4782 55.3572C49.7721 55.0326 50.1103 54.7962 50.4944 54.6486C50.8775 54.5001 51.3439 54.4258 51.8904 54.4258C52.9685 54.4258 53.7931 54.7369 54.3623 55.3572C54.9323 55.978 55.2174 56.8809 55.2174 58.066V62.022C55.2174 62.6998 55.1045 63.2043 54.8791 63.5345C54.6533 63.8648 54.309 64.0301 53.8463 64.0301C53.3836 64.0301 53.0393 63.8648 52.8131 63.5345C52.5873 63.2043 52.4753 62.6998 52.4753 62.022V58.9026C52.4753 58.1347 52.3605 57.5863 52.1319 57.2579C51.9034 56.9314 51.5272 56.767 51.002 56.767C50.505 56.767 50.139 56.9365 49.9012 57.2752C49.6647 57.6148 49.5463 58.1454 49.5463 58.869V62.022C49.5463 62.6998 49.4334 63.2043 49.208 63.5345C48.9822 63.8648 48.6379 64.0301 48.1752 64.0301C47.7125 64.0301 47.3701 63.8648 47.1466 63.5345C46.9236 63.2043 46.8125 62.6998 46.8125 62.022" fill="white"/>
<path fill-rule="evenodd" clip-rule="evenodd" d="M59.1315 59.2523C59.1315 59.9413 59.2976 60.4995 59.6312 60.9264C59.9634 61.3534 60.3928 61.5678 60.9171 61.5678C61.4423 61.5678 61.8731 61.3524 62.2123 60.9227C62.551 60.4925 62.7199 59.9357 62.7199 59.2523C62.7199 58.5857 62.551 58.0424 62.2123 57.6248C61.8731 57.2049 61.4423 56.9961 60.9171 56.9961C60.3928 56.9961 59.9634 57.2049 59.6312 57.6248C59.2976 58.0424 59.1315 58.5857 59.1315 59.2523ZM62.7379 62.7545C62.4385 63.188 62.0827 63.5108 61.6704 63.7252C61.259 63.9386 60.7875 64.0456 60.2568 64.0456C59.1518 64.0456 58.2162 63.5869 57.4508 62.67C56.686 61.753 56.3047 60.6132 56.3047 59.2521C56.3047 57.8792 56.717 56.7231 57.5402 55.7828C58.3643 54.843 59.3684 54.373 60.5534 54.373C61.0161 54.373 61.4275 54.4534 61.7852 54.6122C62.1428 54.7715 62.4612 55.02 62.7379 55.3554C62.8841 55.0821 63.066 54.8668 63.2834 54.7108C63.5005 54.5538 63.7221 54.4753 63.9479 54.4753C64.4162 54.4753 64.7614 54.6393 64.9844 54.9668C65.2074 55.2947 65.319 55.7973 65.319 56.4751V62.0202C65.319 63.0404 65.2699 63.8359 65.1704 64.4086C65.0723 64.9808 64.9076 65.4554 64.6753 65.8309C64.2751 66.5087 63.7235 67.0235 63.0206 67.3738C62.3182 67.7242 61.4853 67.8993 60.5201 67.8993C59.3406 67.8993 58.3781 67.7087 57.6332 67.3262C56.8886 66.945 56.5162 66.4634 56.5162 65.8823C56.5162 65.5353 56.6277 65.247 56.8507 65.0191C57.0728 64.7921 57.3541 64.6781 57.6929 64.6781C57.8567 64.6781 58.2495 64.8 58.8733 65.0457C59.497 65.29 60.0796 65.4124 60.6209 65.4124C61.2979 65.4124 61.8231 65.2106 62.1956 64.8056C62.5676 64.4016 62.7541 63.8293 62.7541 63.0885C62.7541 63.0549 62.7513 63.0002 62.7458 62.9264C62.7393 62.8521 62.7379 62.7947 62.7379 62.7545V62.7545Z" fill="white"/>
<path fill-rule="evenodd" clip-rule="evenodd" d="M69.2583 58.2182H72.8643C72.831 57.752 72.644 57.3615 72.3058 57.048C71.9671 56.7351 71.564 56.5781 71.0958 56.5781C70.6321 56.5781 70.2346 56.7257 69.9019 57.0224C69.5683 57.319 69.3541 57.7174 69.2583 58.2182ZM69.2925 60.0209C69.3536 60.5399 69.565 60.9439 69.9269 61.2349C70.2882 61.5255 70.7644 61.6703 71.3571 61.6703C71.8708 61.6703 72.4418 61.5208 73.0711 61.2223C73.7008 60.9229 74.0886 60.7734 74.2348 60.7734C74.5568 60.7734 74.8197 60.8729 75.0219 61.0719C75.2255 61.2718 75.3268 61.5278 75.3268 61.8417C75.3268 62.434 74.9182 62.9675 74.1001 63.4439C73.2816 63.9195 72.3191 64.1572 71.2137 64.1572C69.8644 64.1572 68.7391 63.6929 67.8363 62.7643C66.9335 61.8357 66.4814 60.6702 66.4814 59.2689C66.4814 57.8624 66.921 56.689 67.7983 55.7491C68.6761 54.8098 69.7686 54.3398 71.0781 54.3398C72.3413 54.3398 73.4 54.7803 74.2519 55.6637C75.1042 56.5465 75.53 57.626 75.53 58.9012C75.53 59.3184 75.4369 59.6084 75.2509 59.7738C75.0645 59.9387 74.7058 60.0209 74.1751 60.0209H69.2925V60.0209Z" fill="white"/>
<path fill-rule="evenodd" clip-rule="evenodd" d="M87.0092 55.5785C87.1499 55.1973 87.3174 54.918 87.5089 54.7419C87.7005 54.5648 87.9406 54.4766 88.228 54.4766C88.6347 54.4766 88.9586 54.5952 89.2016 54.8311C89.4436 55.0675 89.5657 55.3879 89.5657 55.792C89.5657 55.9232 89.5458 56.0685 89.506 56.2282C89.4662 56.388 89.4102 56.5613 89.3371 56.7491L85.1726 66.7299C84.9973 67.1513 84.82 67.4432 84.6396 67.6049C84.4587 67.7683 84.2389 67.8487 83.9797 67.8487C83.5614 67.8487 83.2315 67.73 82.9891 67.4899C82.7461 67.2508 82.6249 66.9261 82.6249 66.5165C82.6249 66.3623 82.6448 66.2054 82.6846 66.0466C82.7235 65.8868 82.7794 65.7275 82.8535 65.5678L83.9797 63.107L81.2196 56.6122C81.1743 56.5099 81.141 56.3978 81.1183 56.2754C81.0956 56.1535 81.085 56.0092 81.085 55.8438C81.085 55.4561 81.2113 55.1315 81.4644 54.8699C81.7194 54.6078 82.0322 54.4766 82.4051 54.4766C82.7327 54.4766 82.9992 54.5705 83.2042 54.7582C83.4101 54.9474 83.6063 55.2968 83.7928 55.8092L85.3337 59.9703L87.0092 55.5785" fill="white"/>
<path fill-rule="evenodd" clip-rule="evenodd" d="M92.4563 59.2133C92.4563 59.9196 92.6238 60.4881 92.9561 60.9183C93.2888 61.348 93.7233 61.5634 94.2605 61.5634C94.7954 61.5634 95.2299 61.3471 95.5635 60.9141C95.8962 60.4806 96.0623 59.914 96.0623 59.2133C96.0623 58.5355 95.8916 57.9815 95.551 57.5509C95.2091 57.1216 94.7792 56.9062 94.2605 56.9062C93.7288 56.9062 93.2962 57.1207 92.9607 57.5476C92.6243 57.9745 92.4563 58.5299 92.4563 59.2133ZM89.6299 59.2512C89.6299 57.8153 90.0662 56.6349 90.9375 55.7095C91.8098 54.7837 92.9166 54.3203 94.2608 54.3203C95.6082 54.3203 96.7151 54.7818 97.5785 55.7048C98.4415 56.6274 98.8732 57.8097 98.8732 59.2512C98.8732 60.6927 98.4415 61.875 97.5785 62.8013C96.7151 63.7271 95.6082 64.19 94.2608 64.19C92.9166 64.19 91.8098 63.7252 90.9375 62.7975C90.0662 61.8689 89.6299 60.6866 89.6299 59.2512V59.2512Z" fill="white"/>
<path fill-rule="evenodd" clip-rule="evenodd" d="M99.9971 60.1501V56.4763C99.9971 55.7985 100.11 55.2959 100.335 54.968C100.561 54.6405 100.905 54.4766 101.368 54.4766C101.825 54.4766 102.165 54.6405 102.387 54.968C102.611 55.2959 102.722 55.7985 102.722 56.4763V59.5863C102.722 60.3206 102.833 60.841 103.053 61.1456C103.272 61.4501 103.631 61.6029 104.127 61.6029C104.624 61.6029 104.982 61.4501 105.203 61.1456C105.422 60.841 105.533 60.3206 105.533 59.5863V56.4763C105.533 55.7985 105.644 55.2959 105.867 54.968C106.09 54.6405 106.435 54.4766 106.904 54.4766C107.361 54.4766 107.7 54.6387 107.919 54.9638C108.14 55.2884 108.249 55.792 108.249 56.4763V60.1501C108.249 61.4604 107.897 62.461 107.192 63.1537C106.486 63.846 105.465 64.1921 104.127 64.1921C102.791 64.1921 101.767 63.846 101.059 63.1537C100.352 62.461 99.9971 61.4604 99.9971 60.1501" fill="white"/>
<path fill-rule="evenodd" clip-rule="evenodd" d="M109.919 62.022V56.4769C109.919 55.7991 110.03 55.2965 110.253 54.9686C110.477 54.6411 110.819 54.4772 111.282 54.4772C111.558 54.4772 111.805 54.55 112.019 54.6953C112.233 54.8401 112.422 55.0611 112.585 55.3572C112.868 55.0498 113.166 54.8172 113.483 54.6603C113.799 54.5043 114.117 54.4258 114.44 54.4258C114.817 54.4258 115.143 54.5608 115.417 54.8317C115.69 55.1031 115.827 55.4221 115.827 55.7926C115.827 56.3456 115.325 56.8071 114.32 57.1766C113.96 57.3088 113.689 57.4167 113.508 57.5022C113.164 57.6676 112.936 57.8507 112.823 58.0534C112.71 58.2552 112.653 58.6219 112.653 59.1511V62.022C112.653 62.6998 112.541 63.2043 112.315 63.5345C112.089 63.8648 111.745 64.0301 111.282 64.0301C110.819 64.0301 110.477 63.8648 110.253 63.5345C110.03 63.2043 109.919 62.6998 109.919 62.022" fill="white"/>
<path fill-rule="evenodd" clip-rule="evenodd" d="M118.948 64.1771C117.972 64.1771 117.163 63.9804 116.523 63.5871C115.882 63.1938 115.562 62.7066 115.562 62.1255C115.562 61.7789 115.664 61.4851 115.867 61.2459C116.07 61.0068 116.315 60.8872 116.604 60.8872C116.891 60.8872 117.314 61.0208 117.872 61.2889C118.432 61.5561 118.852 61.6902 119.134 61.6902C119.36 61.6902 119.543 61.6355 119.684 61.5281C119.826 61.4192 119.896 61.2852 119.896 61.1264C119.896 60.8526 119.459 60.5397 118.584 60.1865C118.505 60.152 118.449 60.1291 118.415 60.1174C117.41 59.697 116.725 59.2789 116.358 58.8665C115.991 58.4531 115.808 57.9304 115.808 57.2983C115.808 56.4496 116.13 55.7419 116.777 55.1744C117.423 54.6078 118.24 54.3242 119.227 54.3242C120.119 54.3242 120.875 54.5157 121.496 54.8969C122.116 55.2795 122.427 55.7288 122.427 56.2473C122.427 56.572 122.318 56.8448 122.101 57.0676C121.884 57.2899 121.617 57.4006 121.301 57.4006C121.092 57.4006 120.738 57.2899 120.238 57.0676C119.739 56.8448 119.36 56.7345 119.1 56.7345C118.914 56.7345 118.765 56.7784 118.652 56.8667C118.538 56.955 118.482 57.0704 118.482 57.2124C118.482 57.4688 118.843 57.737 119.566 58.0154C119.904 58.1466 120.173 58.2583 120.37 58.3494C121.188 58.7198 121.77 59.1112 122.118 59.5237C122.464 59.9366 122.639 60.4369 122.639 61.0231C122.639 61.9237 122.29 62.6749 121.592 63.2751C120.895 63.8763 120.014 64.1771 118.948 64.1771" fill="white"/>
<path fill-rule="evenodd" clip-rule="evenodd" d="M125.932 58.2182H129.537C129.504 57.752 129.318 57.3615 128.98 57.048C128.641 56.7351 128.237 56.5781 127.769 56.5781C127.306 56.5781 126.908 56.7257 126.575 57.0224C126.242 57.319 126.028 57.7174 125.932 58.2182ZM125.967 60.0209C126.029 60.5399 126.241 60.9439 126.602 61.2349C126.963 61.5255 127.44 61.6703 128.032 61.6703C128.545 61.6703 129.118 61.5208 129.746 61.2223C130.375 60.9229 130.764 60.7734 130.911 60.7734C131.232 60.7734 131.494 60.8729 131.698 61.0719C131.901 61.2718 132.002 61.5278 132.002 61.8417C132.002 62.434 131.593 62.9675 130.775 63.4439C129.956 63.9195 128.994 64.1572 127.888 64.1572C126.54 64.1572 125.414 63.6929 124.511 62.7643C123.608 61.8357 123.157 60.6702 123.157 59.2689C123.157 57.8624 123.595 56.689 124.473 55.7491C125.351 54.8098 126.443 54.3398 127.753 54.3398C129.017 54.3398 130.075 54.7803 130.928 55.6637C131.779 56.5465 132.205 57.626 132.205 58.9012C132.205 59.3184 132.112 59.6084 131.926 59.7738C131.74 59.9387 131.381 60.0209 130.851 60.0209H125.967V60.0209Z" fill="white"/>
<path fill-rule="evenodd" clip-rule="evenodd" d="M133.657 51.0503C133.883 50.72 134.228 50.5547 134.69 50.5547C135.141 50.5547 135.478 50.7219 135.701 51.055C135.924 51.3885 136.036 51.8939 136.036 52.5722V62.0219C136.036 62.7053 135.926 63.2107 135.706 63.5391C135.485 63.8656 135.147 64.03 134.69 64.03C134.228 64.03 133.883 63.8647 133.657 63.5344C133.432 63.2042 133.318 62.6997 133.318 62.0219V52.5722C133.318 51.8878 133.432 51.3815 133.657 51.0503Z" fill="white"/>
<path fill-rule="evenodd" clip-rule="evenodd" d="M141.552 54.7251C142.094 54.7251 142.518 54.8335 142.826 55.0497C143.134 55.266 143.288 55.5654 143.288 55.9466C143.288 56.3399 143.141 56.6365 142.847 56.8355C142.554 57.035 142.122 57.1345 141.552 57.1345H141.154V62.0219C141.154 62.6945 141.037 63.1962 140.803 63.5302C140.569 63.8628 140.217 64.03 139.749 64.03C139.286 64.03 138.942 63.8647 138.717 63.5344C138.491 63.2042 138.378 62.6997 138.378 62.0219V57.1345H138.276C137.797 57.1345 137.42 57.028 137.146 56.8145C136.873 56.6001 136.736 56.3114 136.736 55.9466C136.736 55.571 136.873 55.2805 137.146 55.0754C137.42 54.8704 137.831 54.7536 138.378 54.7251C138.378 54.6742 138.375 54.5957 138.369 54.4897C138.364 54.3841 138.361 54.3061 138.361 54.2552C138.361 53.0645 138.607 52.1504 139.098 51.5118C139.589 50.8742 140.29 50.5547 141.204 50.5547C141.764 50.5547 142.204 50.6789 142.524 50.927C142.847 51.175 143.008 51.5118 143.008 51.9388C143.008 52.2755 142.915 52.532 142.729 52.709C142.543 52.8851 142.221 53.007 141.764 53.0757C141.498 53.121 141.331 53.1967 141.26 53.3018C141.189 53.4078 141.154 53.6769 141.154 54.1104V54.7251H141.552Z" fill="white"/>
<path fill-rule="evenodd" clip-rule="evenodd" d="M73.3472 23.6737H84.4844C84.3794 22.2313 83.8047 21.0261 82.7589 20.0578C81.7132 19.0909 80.4671 18.6074 79.0201 18.6074C77.5908 18.6074 76.3623 19.0647 75.3341 19.9793C74.3055 20.8935 73.6438 22.1262 73.3472 23.6737M73.4507 29.2409C73.6428 30.8422 74.2957 32.0913 75.4113 32.9891C76.5265 33.8859 77.9998 34.3348 79.8298 34.3348C81.416 34.3348 83.1799 33.8729 85.1238 32.9498C87.0672 32.0259 88.2652 31.5639 88.7182 31.5639C89.7112 31.5639 90.5219 31.8722 91.1498 32.4874C91.7773 33.1031 92.091 33.8948 92.091 34.8627C92.091 36.6933 90.8273 38.3418 88.3004 39.8113C85.773 41.2804 82.8014 42.0147 79.3851 42.0147C75.2197 42.0147 71.7424 40.5806 68.954 37.713C66.1657 34.8454 64.7715 31.2472 64.7715 26.9194C64.7715 22.5729 66.1263 18.948 68.8365 16.0449C71.5462 13.1423 74.9231 11.6914 78.9673 11.6914C82.8708 11.6914 86.139 13.0544 88.7705 15.7815C91.4025 18.5094 92.7185 21.8428 92.7185 25.7843C92.7185 27.0689 92.4306 27.9657 91.8555 28.4758C91.2803 28.9868 90.173 29.2409 88.5359 29.2409H73.4507" fill="white"/>
<path fill-rule="evenodd" clip-rule="evenodd" d="M152.31 25.2583H161.251V10.5586L152.31 25.2583M169.175 32.9904V37.0282C169.175 38.5239 168.805 39.6805 168.065 40.4988C167.324 41.3163 166.283 41.726 164.941 41.726C163.685 41.726 162.757 41.321 162.156 40.5115C161.555 39.7024 161.254 38.4533 161.254 36.7647V32.9904H147.816C146.021 32.9904 144.697 32.7097 143.843 32.1454C142.989 31.5825 142.562 30.7296 142.562 29.5856C142.562 28.3711 143.154 26.8413 144.339 24.9939C144.444 24.8005 144.531 24.6505 144.601 24.545L155.947 6.44049C156.905 4.90929 157.873 3.83212 158.849 3.20712C159.824 2.58305 161.001 2.27148 162.378 2.27148C164.505 2.27148 166.17 3.04923 167.372 4.60566C168.574 6.16303 169.175 8.34072 169.175 11.1383V25.2573H170.456C171.903 25.2573 173.049 25.5876 173.894 26.2471C174.739 26.9067 175.162 27.7998 175.162 28.9256C175.162 30.298 174.735 31.3191 173.881 31.9875C173.028 32.6564 171.729 32.9904 169.986 32.9904H169.175" fill="white"/>
<path fill-rule="evenodd" clip-rule="evenodd" d="M3.32002 13.2484H4.10387V8.92055C4.10387 7.75883 4.13488 6.84842 4.19596 6.18885C4.25703 5.52929 4.42685 4.96174 4.70541 4.48668C4.98443 3.99481 5.38561 3.59403 5.90802 3.28573C6.4309 2.97837 7.01485 2.82422 7.65942 2.82422C8.56589 2.82422 9.38537 3.16708 10.1174 3.85327C10.6046 4.31152 10.9147 4.86972 11.0452 5.52929C11.1756 6.18885 11.2409 7.12542 11.2409 8.33992V13.2484H13.8557C14.8663 13.2484 15.6377 13.4913 16.1693 13.9747C16.7005 14.4582 16.9671 15.0785 16.9671 15.8348C16.9671 16.8027 16.5876 17.48 15.8292 17.8677C15.0713 18.2545 13.9862 18.4478 12.5744 18.4478H11.2409V31.6957C11.2409 32.8224 11.2807 33.6894 11.3589 34.2961C11.4371 34.9029 11.6472 35.3953 11.9868 35.7741C12.3264 36.1525 12.8794 36.3416 13.6461 36.3416C14.0644 36.3416 14.6308 36.2669 15.3461 36.117C16.0601 35.9675 16.6177 35.8927 17.0193 35.8927C17.5945 35.8927 18.1123 36.1263 18.575 36.5925C19.0359 37.0587 19.2672 37.6342 19.2672 38.3203C19.2672 39.4816 18.6398 40.3701 17.3849 40.9862C16.13 41.6009 14.3263 41.9092 11.9729 41.9092C9.74213 41.9092 8.05181 41.5318 6.90149 40.7746C5.75162 40.0192 4.99693 38.9715 4.64017 37.6342C4.28295 36.2977 4.10387 34.5115 4.10387 32.2773V18.4478H3.16316C2.135 18.4478 1.35068 18.2017 0.810687 17.7089C0.269766 17.2161 0 16.592 0 15.8348C0 15.0785 0.282723 14.4582 0.849556 13.9747C1.41546 13.4913 2.23911 13.2484 3.32002 13.2484" fill="white"/>
<path fill-rule="evenodd" clip-rule="evenodd" d="M27.6238 26.7638C27.6238 28.8574 28.1291 30.5427 29.1396 31.817C30.1507 33.0932 31.4662 33.7313 33.0871 33.7313C34.6733 33.7313 35.9717 33.0843 36.9832 31.7913C37.9934 30.4979 38.4991 28.8219 38.4991 26.7638C38.4991 24.7584 37.9896 23.1217 36.9698 21.8544C35.95 20.588 34.6562 19.9551 33.0871 19.9551C31.4833 19.9551 30.1724 20.5838 29.1531 21.8418C28.1332 23.0997 27.6238 24.7411 27.6238 26.7638M38.7594 38.663C37.9057 39.7197 36.8724 40.5236 35.6615 41.078C34.4496 41.632 33.1299 41.909 31.7015 41.909C28.0932 41.909 25.0559 40.4759 22.5892 37.6078C20.1233 34.7402 18.8906 31.1593 18.8906 26.8665C18.8906 22.626 20.1626 19.0545 22.7076 16.1513C25.2521 13.2482 28.3547 11.7969 32.0148 11.7969C33.4437 11.7969 34.7111 12.044 35.8184 12.5359C36.9252 13.0282 37.9057 13.7938 38.7594 14.8322C39.2471 13.9344 39.8315 13.2575 40.5108 12.7998C41.1905 12.3425 41.9489 12.1131 42.7855 12.1131C44.1968 12.1131 45.2431 12.6148 45.9228 13.6177C46.6025 14.6206 46.9422 16.178 46.9422 18.2889V35.4171C46.9422 37.5111 46.5979 39.0685 45.9094 40.0891C45.2208 41.1093 44.1793 41.6189 42.7855 41.6189C41.8444 41.6189 41.0508 41.3821 40.4062 40.9066C39.7612 40.4315 39.2124 39.6842 38.7594 38.663" fill="white"/>
<path fill-rule="evenodd" clip-rule="evenodd" d="M52.5234 6.22852C52.5234 4.11622 52.8714 2.55092 53.5692 1.5298C54.266 0.510091 55.3294 0 56.7587 0C58.1534 0 59.194 0.514762 59.8825 1.54335C60.5711 2.57287 60.9153 4.13444 60.9153 6.22852V35.4167C60.9153 37.5281 60.5757 39.0901 59.896 40.1014C59.2158 41.1137 58.1705 41.6186 56.7587 41.6186C55.3294 41.6186 54.266 41.109 53.5692 40.0888C52.8714 39.0682 52.5234 37.5108 52.5234 35.4167V6.22852" fill="white"/>
<path fill-rule="evenodd" clip-rule="evenodd" d="M95.8945 35.4169V18.2887C95.8945 16.196 96.2379 14.6433 96.9264 13.6311C97.6149 12.6193 98.6732 12.113 100.103 12.113C100.957 12.113 101.715 12.3376 102.377 12.7865C103.039 13.2354 103.623 13.917 104.13 14.832C105.035 13.8282 106.08 13.0995 107.266 12.6417C108.451 12.1835 109.889 11.9551 111.58 11.9551C114.908 11.9551 117.453 12.9141 119.214 14.832C120.974 16.7496 121.854 19.5387 121.854 23.1981V35.4169C121.854 37.511 121.505 39.0684 120.808 40.089C120.111 41.1092 119.048 41.6188 117.619 41.6188C116.189 41.6188 115.126 41.1092 114.429 40.089C113.732 39.0684 113.384 37.511 113.384 35.4169V25.7845C113.384 23.4088 113.031 21.7155 112.325 20.7037C111.619 19.6919 110.455 19.1865 108.835 19.1865C107.301 19.1865 106.168 19.7101 105.436 20.7565C104.704 21.8028 104.338 23.4443 104.338 25.6789V35.4169C104.338 37.511 103.989 39.0684 103.293 40.089C102.595 41.1092 101.532 41.6188 100.103 41.6188C98.6732 41.6188 97.6149 41.1092 96.9264 40.089C96.2379 39.0684 95.8945 37.511 95.8945 35.4169" fill="white"/>
<path fill-rule="evenodd" clip-rule="evenodd" d="M128.064 13.2484H128.848V8.92055C128.848 7.75883 128.878 6.84842 128.939 6.18885C129 5.52929 129.17 4.96174 129.449 4.48668C129.729 3.99481 130.129 3.59403 130.652 3.28573C131.175 2.97837 131.758 2.82422 132.404 2.82422C133.31 2.82422 134.129 3.16708 134.861 3.85327C135.349 4.31152 135.658 4.86972 135.789 5.52929C135.92 6.18885 135.985 7.12542 135.985 8.33992V13.2484H138.6C139.61 13.2484 140.381 13.4913 140.913 13.9747C141.445 14.4582 141.71 15.0785 141.71 15.8348C141.71 16.8027 141.332 17.48 140.573 17.8677C139.815 18.2545 138.73 18.4478 137.319 18.4478H135.985V31.6957C135.985 32.8224 136.024 33.6894 136.102 34.2961C136.181 34.9029 136.39 35.3953 136.731 35.7741C137.07 36.1525 137.623 36.3416 138.39 36.3416C138.808 36.3416 139.375 36.2669 140.09 36.117C140.804 35.9675 141.362 35.8927 141.762 35.8927C142.339 35.8927 142.856 36.1263 143.319 36.5925C143.78 37.0587 144.011 37.6342 144.011 38.3203C144.011 39.4816 143.384 40.3701 142.129 40.9862C140.874 41.6009 139.07 41.9092 136.717 41.9092C134.486 41.9092 132.796 41.5318 131.645 40.7746C130.495 40.0192 129.741 38.9715 129.384 37.6342C129.027 36.2977 128.848 34.5115 128.848 32.2773V18.4478H127.907C126.879 18.4478 126.094 18.2017 125.554 17.7089C125.014 17.2161 124.743 16.592 124.743 15.8348C124.743 15.0785 125.027 14.4582 125.593 13.9747C126.16 13.4913 126.983 13.2484 128.064 13.2484" fill="white"/>
<path fill-rule="evenodd" clip-rule="evenodd" d="M179.306 13.2484H180.09V8.92055C180.09 7.75883 180.12 6.84842 180.181 6.18885C180.242 5.52929 180.413 4.96174 180.691 4.48668C180.97 3.99481 181.371 3.59403 181.894 3.28573C182.417 2.97837 183 2.82422 183.646 2.82422C184.551 2.82422 185.371 3.16708 186.103 3.85327C186.591 4.31152 186.901 4.86972 187.031 5.52929C187.162 6.18885 187.227 7.12542 187.227 8.33992V13.2484H189.842C190.852 13.2484 191.623 13.4913 192.155 13.9747C192.687 14.4582 192.952 15.0785 192.952 15.8348C192.952 16.8027 192.574 17.48 191.816 17.8677C191.057 18.2545 189.972 18.4478 188.56 18.4478H187.227V31.6957C187.227 32.8224 187.266 33.6894 187.345 34.2961C187.423 34.9029 187.632 35.3953 187.972 35.7741C188.312 36.1525 188.865 36.3416 189.632 36.3416C190.05 36.3416 190.617 36.2669 191.332 36.117C192.046 35.9675 192.604 35.8927 193.005 35.8927C193.58 35.8927 194.099 36.1263 194.56 36.5925C195.022 37.0587 195.254 37.6342 195.254 38.3203C195.254 39.4816 194.626 40.3701 193.371 40.9862C192.115 41.6009 190.312 41.9092 187.959 41.9092C185.728 41.9092 184.038 41.5318 182.887 40.7746C181.737 40.0192 180.983 38.9715 180.626 37.6342C180.269 36.2977 180.09 34.5115 180.09 32.2773V18.4478H179.149C178.12 18.4478 177.336 18.2017 176.796 17.7089C176.256 17.2161 175.985 16.592 175.985 15.8348C175.985 15.0785 176.269 14.4582 176.835 13.9747C177.401 13.4913 178.225 13.2484 179.306 13.2484" fill="white"/>
<path fill-rule="evenodd" clip-rule="evenodd" d="M203.611 26.7638C203.611 28.8574 204.116 30.5427 205.127 31.817C206.138 33.0932 207.454 33.7313 209.074 33.7313C210.66 33.7313 211.959 33.0843 212.97 31.7913C213.981 30.4979 214.486 28.8219 214.486 26.7638C214.486 24.7584 213.976 23.1217 212.957 21.8544C211.938 20.588 210.643 19.9551 209.074 19.9551C207.471 19.9551 206.16 20.5838 205.14 21.8418C204.121 23.0997 203.611 24.7411 203.611 26.7638M214.745 38.663C213.89 39.7197 212.858 40.5236 211.647 41.078C210.435 41.632 209.115 41.909 207.686 41.909C204.078 41.909 201.042 40.4759 198.575 37.6078C196.109 34.7402 194.876 31.1593 194.876 26.8665C194.876 22.626 196.148 19.0545 198.692 16.1513C201.238 13.2482 204.34 11.7969 208 11.7969C209.429 11.7969 210.696 12.044 211.803 12.5359C212.911 13.0282 213.89 13.7938 214.745 14.8322C215.232 13.9344 215.817 13.2575 216.497 12.7998C217.176 12.3425 217.934 12.1131 218.77 12.1131C220.182 12.1131 221.227 12.6148 221.908 13.6177C222.588 14.6206 222.928 16.178 222.928 18.2889V35.4171C222.928 37.5111 222.583 39.0685 221.895 40.0891C221.206 41.1093 220.165 41.6189 218.77 41.6189C217.829 41.6189 217.036 41.3821 216.392 40.9066C215.747 40.4315 215.198 39.6842 214.745 38.663" fill="white"/>
<path fill-rule="evenodd" clip-rule="evenodd" d="M228.51 6.22852C228.51 4.11622 228.859 2.55092 229.555 1.5298C230.253 0.510091 231.316 0 232.746 0C234.14 0 235.18 0.514762 235.87 1.54335C236.557 2.57287 236.902 4.13444 236.902 6.22852V35.4167C236.902 37.5281 236.562 39.0901 235.882 40.1014C235.203 41.1137 234.157 41.6186 232.746 41.6186C231.316 41.6186 230.253 41.109 229.555 40.0888C228.859 39.0682 228.51 37.5108 228.51 35.4167V6.22852" fill="white"/>
<path fill-rule="evenodd" clip-rule="evenodd" d="M249.331 23.6737H260.469C260.363 22.2313 259.789 21.0261 258.743 20.0578C257.697 19.0909 256.451 18.6074 255.005 18.6074C253.575 18.6074 252.346 19.0647 251.318 19.9793C250.29 20.8935 249.628 22.1262 249.331 23.6737M249.435 29.2409C249.627 30.8422 250.28 32.0913 251.396 32.9891C252.511 33.8859 253.984 34.3348 255.814 34.3348C257.399 34.3348 259.165 33.8729 261.108 32.9498C263.052 32.0259 264.249 31.5639 264.703 31.5639C265.696 31.5639 266.507 31.8722 267.134 32.4874C267.762 33.1031 268.075 33.8948 268.075 34.8627C268.075 36.6933 266.811 38.3418 264.284 39.8113C261.757 41.2804 258.785 42.0147 255.37 42.0147C251.204 42.0147 247.727 40.5806 244.938 37.713C242.15 34.8454 240.756 31.2472 240.756 26.9194C240.756 22.5729 242.111 18.948 244.821 16.0449C247.531 13.1423 250.908 11.6914 254.951 11.6914C258.856 11.6914 262.123 13.0544 264.755 15.7815C267.387 18.5094 268.703 21.8428 268.703 25.7843C268.703 27.0689 268.415 27.9657 267.839 28.4758C267.265 28.9868 266.158 29.2409 264.519 29.2409H249.435" fill="white"/>
<path fill-rule="evenodd" clip-rule="evenodd" d="M271.881 35.4169V18.2887C271.881 16.196 272.225 14.6433 272.914 13.6311C273.602 12.6193 274.661 12.113 276.09 12.113C276.944 12.113 277.702 12.3376 278.365 12.7865C279.027 13.2354 279.611 13.917 280.116 14.832C281.022 13.8282 282.068 13.0995 283.253 12.6417C284.439 12.1835 285.876 11.9551 287.568 11.9551C290.896 11.9551 293.44 12.9141 295.201 14.832C296.961 16.7496 297.841 19.5387 297.841 23.1981V35.4169C297.841 37.511 297.492 39.0684 296.796 40.089C296.098 41.1092 295.035 41.6188 293.606 41.6188C292.177 41.6188 291.114 41.1092 290.417 40.089C289.719 39.0684 289.371 37.511 289.371 35.4169V25.7845C289.371 23.4088 289.018 21.7155 288.312 20.7037C287.606 19.6919 286.443 19.1865 284.822 19.1865C283.288 19.1865 282.156 19.7101 281.424 20.7565C280.692 21.8028 280.326 23.4443 280.326 25.6789V35.4169C280.326 37.511 279.977 39.0684 279.279 40.089C278.582 41.1092 277.52 41.6188 276.09 41.6188C274.661 41.6188 273.602 41.1092 272.914 40.089C272.225 39.0684 271.881 37.511 271.881 35.4169" fill="white"/>
<path fill-rule="evenodd" clip-rule="evenodd" d="M304.053 13.2484H304.836V8.92055C304.836 7.75883 304.867 6.84842 304.928 6.18885C304.989 5.52929 305.159 4.96174 305.438 4.48668C305.716 3.99481 306.118 3.59403 306.641 3.28573C307.163 2.97837 307.747 2.82422 308.393 2.82422C309.298 2.82422 310.118 3.16708 310.85 3.85327C311.338 4.31152 311.647 4.86972 311.778 5.52929C311.908 6.18885 311.974 7.12542 311.974 8.33992V13.2484H314.588C315.599 13.2484 316.37 13.4913 316.902 13.9747C317.433 14.4582 317.699 15.0785 317.699 15.8348C317.699 16.8027 317.32 17.48 316.562 17.8677C315.804 18.2545 314.719 18.4478 313.307 18.4478H311.974V31.6957C311.974 32.8224 312.013 33.6894 312.092 34.2961C312.17 34.9029 312.379 35.3953 312.719 35.7741C313.058 36.1525 313.612 36.3416 314.379 36.3416C314.797 36.3416 315.364 36.2669 316.079 36.117C316.793 35.9675 317.351 35.8927 317.752 35.8927C318.327 35.8927 318.845 36.1263 319.307 36.5925C319.769 37.0587 320 37.6342 320 38.3203C320 39.4816 319.372 40.3701 318.118 40.9862C316.862 41.6009 315.058 41.9092 312.706 41.9092C310.475 41.9092 308.785 41.5318 307.634 40.7746C306.484 40.0192 305.73 38.9715 305.373 37.6342C305.015 36.2977 304.836 34.5115 304.836 32.2773V18.4478H303.896C302.867 18.4478 302.083 18.2017 301.543 17.7089C301.003 17.2161 300.732 16.592 300.732 15.8348C300.732 15.0785 301.015 14.4582 301.582 13.9747C302.148 13.4913 302.972 13.2484 304.053 13.2484" fill="white"/>
</svg>
