<svg width="308" height="68" viewBox="0 0 308 68" fill="none" xmlns="http://www.w3.org/2000/svg">
<path fill-rule="evenodd" clip-rule="evenodd" d="M2.67244 58.2177H6.14231C6.1098 57.7515 5.93076 57.361 5.60564 57.0476C5.27918 56.7346 4.89038 56.5777 4.43966 56.5777C3.99429 56.5777 3.61172 56.7253 3.29061 57.0219C2.97083 57.3185 2.76463 57.7169 2.67244 58.2177ZM2.70517 60.0209C2.76441 60.5399 2.96794 60.9439 3.31577 61.2349C3.66272 61.5255 4.12234 61.6703 4.69196 61.6703C5.18677 61.6703 5.7368 61.5208 6.34206 61.2223C6.94731 60.9229 7.32053 60.7734 7.46261 60.7734C7.77214 60.7734 8.02421 60.8729 8.22018 61.0719C8.41569 61.2718 8.51323 61.5278 8.51323 61.8417C8.51323 62.434 8.11908 62.9675 7.33211 63.4439C6.5447 63.9195 5.61833 64.1572 4.55434 64.1572C3.25565 64.1572 2.17207 63.6929 1.3027 62.7643C0.43379 61.8357 0 60.6702 0 59.2689C0 57.8624 0.421765 56.689 1.26618 55.7491C2.11105 54.8098 3.16346 54.3398 4.42296 54.3398C5.64015 54.3398 6.65871 54.7803 7.47908 55.6637C8.29901 56.5465 8.70786 57.626 8.70786 58.9012C8.70786 59.3184 8.61834 59.6084 8.44019 59.7738C8.26071 59.9387 7.91555 60.0209 7.40515 60.0209H2.70517V60.0209Z" fill="white"/>
<path fill-rule="evenodd" clip-rule="evenodd" d="M12.9832 60.9701L11.1175 63.3113C10.9162 63.5677 10.7278 63.7518 10.551 63.862C10.3746 63.9737 10.1831 64.0293 9.97604 64.0293C9.63445 64.0293 9.33738 63.8961 9.08887 63.628C8.83813 63.3603 8.71387 63.0413 8.71387 62.6709C8.71387 62.4602 8.74772 62.272 8.81586 62.1071C8.88355 61.9417 9.03142 61.7254 9.25944 61.4573L11.4516 58.9368L9.60995 56.9795C9.45229 56.8034 9.3307 56.6185 9.24386 56.4251C9.15567 56.2308 9.11247 56.0434 9.11247 55.8603C9.11247 55.496 9.23673 55.1741 9.48391 54.8948C9.73065 54.6159 10.0179 54.4763 10.343 54.4763C10.5492 54.4763 10.7425 54.5234 10.9216 54.6173C11.1006 54.7117 11.2721 54.8574 11.4346 55.0574L13.0317 56.9968L14.4983 55.1083C14.6497 54.9149 14.8257 54.7579 15.0239 54.6384C15.2212 54.5192 15.4024 54.459 15.565 54.459C15.9346 54.459 16.2522 54.5949 16.5185 54.8649C16.7844 55.1358 16.9176 55.4558 16.9176 55.8262C16.9176 55.9972 16.869 56.1822 16.7706 56.3821C16.6731 56.5811 16.5288 56.7918 16.339 57.0141L14.6039 58.954L16.6566 61.3891C16.9064 61.6801 17.0708 61.9216 17.1501 62.115C17.228 62.3084 17.2681 62.5228 17.2681 62.7554C17.2681 63.103 17.1501 63.4024 16.9131 63.6532C16.6775 63.9031 16.3956 64.0293 16.0705 64.0293C15.8478 64.0293 15.6451 63.9746 15.463 63.8667C15.2813 63.7593 15.0822 63.5738 14.8649 63.3113L12.9832 60.9701" fill="white"/>
<path fill-rule="evenodd" clip-rule="evenodd" d="M17.2412 59.2537C17.2412 57.8015 17.6567 56.622 18.4878 55.7158C19.3184 54.811 20.41 54.3574 21.7626 54.3574C22.6369 54.3574 23.3459 54.5214 23.8892 54.8493C24.4321 55.1767 24.7038 55.6018 24.7038 56.1264C24.7038 56.4622 24.6001 56.7411 24.3938 56.963C24.1876 57.1858 23.9267 57.297 23.6118 57.297C23.4764 57.297 23.202 57.2274 22.7892 57.0872C22.3768 56.9476 22.0338 56.878 21.7626 56.878C21.2197 56.878 20.7806 57.0914 20.4465 57.5184C20.1134 57.9463 19.9455 58.5077 19.9455 59.2019C19.9455 59.9254 20.117 60.4939 20.4595 60.9068C20.8015 61.3202 21.2687 61.5267 21.861 61.5267C22.1478 61.5267 22.4917 61.4571 22.8907 61.3165C23.2902 61.1768 23.5494 61.1077 23.6692 61.1077C23.9574 61.1077 24.1983 61.2236 24.3938 61.4534C24.5898 61.6841 24.6878 61.9681 24.6878 62.304C24.6878 62.8113 24.3912 63.2443 23.7997 63.603C23.2074 63.9613 22.4743 64.1412 21.6 64.1412C20.3071 64.1412 19.2574 63.6895 18.4508 62.7875C17.6447 61.8841 17.2412 60.7065 17.2412 59.2537" fill="white"/>
<path fill-rule="evenodd" clip-rule="evenodd" d="M28.1512 55.2973C28.4336 54.9895 28.7485 54.7681 29.0967 54.6312C29.4446 54.4943 29.881 54.4257 30.4084 54.4257C31.4461 54.4257 32.2384 54.7368 32.7875 55.3571C33.3353 55.9779 33.6101 56.8808 33.6101 58.0659V62.0219C33.6101 62.6997 33.5014 63.2042 33.2841 63.5344C33.0668 63.8647 32.7354 64.03 32.2909 64.03C31.8447 64.03 31.5129 63.8647 31.2964 63.5344C31.0791 63.2042 30.9704 62.6997 30.9704 62.0219V58.9025C30.9704 58.1346 30.8608 57.5862 30.6404 57.2578C30.4204 56.9313 30.0578 56.7669 29.5532 56.7669C29.0749 56.7669 28.7217 56.9364 28.4937 57.2751C28.2657 57.6147 28.1512 58.1453 28.1512 58.8689V62.0219C28.1512 62.6997 28.043 63.2042 27.8257 63.5344C27.6083 63.8647 27.277 64.03 26.8325 64.03C26.3862 64.03 26.0566 63.8647 25.8415 63.5344C25.6278 63.2042 25.5195 62.6997 25.5195 62.0219V52.5722C25.5195 51.8878 25.6278 51.3815 25.8415 51.0503C26.0566 50.72 26.3862 50.5547 26.8325 50.5547C27.277 50.5547 27.6083 50.7228 27.8257 51.0592C28.043 51.395 28.1512 51.8995 28.1512 52.5722V55.2973" fill="white"/>
<path fill-rule="evenodd" clip-rule="evenodd" d="M37.3773 59.2152C37.3773 59.893 37.5359 60.4386 37.8508 60.852C38.1656 61.2654 38.5754 61.4714 39.0809 61.4714C39.5748 61.4714 39.9801 61.2617 40.2941 60.8427C40.6089 60.4241 40.7675 59.8823 40.7675 59.2152C40.7675 58.5664 40.608 58.0367 40.2905 57.6261C39.9734 57.2155 39.5694 57.0109 39.0809 57.0109C38.5816 57.0109 38.1728 57.2146 37.8543 57.6224C37.5368 58.0292 37.3773 58.5603 37.3773 59.2152ZM40.8477 63.0712C40.5809 63.4127 40.2598 63.6733 39.8812 63.8532C39.504 64.033 39.0925 64.1222 38.6471 64.1222C37.5234 64.1222 36.577 63.6579 35.8079 62.7302C35.0396 61.8011 34.6553 60.6417 34.6553 59.2521C34.6553 57.8792 35.0521 56.7231 35.8453 55.7828C36.6385 54.843 37.605 54.373 38.7455 54.373C39.1909 54.373 39.5855 54.4534 39.9311 54.6122C40.2754 54.7715 40.5809 55.02 40.8477 55.3554C40.9991 55.0644 41.1808 54.8458 41.3933 54.6977C41.6057 54.5491 41.8413 54.4753 42.1023 54.4753C42.5423 54.4753 42.8679 54.6374 43.0799 54.9625C43.2914 55.2872 43.3974 55.7907 43.3974 56.4751V62.0202C43.3974 62.698 43.2896 63.2025 43.0754 63.5327C42.8608 63.863 42.5361 64.0283 42.1023 64.0283C41.8083 64.0283 41.5612 63.9517 41.3603 63.7976C41.1594 63.6434 40.9889 63.4015 40.8477 63.0712V63.0712Z" fill="white"/>
<path fill-rule="evenodd" clip-rule="evenodd" d="M45.0566 62.022V56.4769C45.0566 55.7991 45.1635 55.2965 45.3782 54.9686C45.5933 54.6411 45.9229 54.4772 46.3683 54.4772C46.6346 54.4772 46.8702 54.55 47.0773 54.6953C47.2835 54.8401 47.4652 55.0611 47.6224 55.3572C47.9052 55.0326 48.2308 54.7962 48.6004 54.6486C48.9692 54.5001 49.4181 54.4258 49.9441 54.4258C50.9818 54.4258 51.7755 54.7369 52.3233 55.3572C52.872 55.978 53.1463 56.8809 53.1463 58.066V62.022C53.1463 62.6998 53.0377 63.2043 52.8208 63.5345C52.6034 63.8648 52.2721 64.0301 51.8267 64.0301C51.3813 64.0301 51.05 63.8648 50.8322 63.5345C50.6148 63.2043 50.5071 62.6998 50.5071 62.022V58.9026C50.5071 58.1347 50.3966 57.5863 50.1766 57.2579C49.9566 56.9314 49.5945 56.767 49.089 56.767C48.6107 56.767 48.2584 56.9365 48.0295 57.2752C47.8019 57.6148 47.6879 58.1454 47.6879 58.869V62.022C47.6879 62.6998 47.5792 63.2043 47.3623 63.5345C47.145 63.8648 46.8136 64.0301 46.3683 64.0301C45.9229 64.0301 45.5933 63.8648 45.3782 63.5345C45.1635 63.2043 45.0566 62.6998 45.0566 62.022" fill="white"/>
<path fill-rule="evenodd" clip-rule="evenodd" d="M56.9139 59.252C56.9139 59.941 57.0738 60.4992 57.3949 60.9262C57.7147 61.3531 58.128 61.5675 58.6326 61.5675C59.1381 61.5675 59.5527 61.3522 59.8792 60.9224C60.2052 60.4922 60.3678 59.9354 60.3678 59.252C60.3678 58.5855 60.2052 58.0422 59.8792 57.6246C59.5527 57.2047 59.1381 56.9959 58.6326 56.9959C58.128 56.9959 57.7147 57.2047 57.3949 57.6246C57.0738 58.0422 56.9139 58.5855 56.9139 59.252ZM60.3853 62.7545C60.0972 63.188 59.7547 63.5108 59.3579 63.7252C58.9619 63.9386 58.5081 64.0456 57.9973 64.0456C56.9337 64.0456 56.0332 63.5869 55.2965 62.67C54.5603 61.753 54.1934 60.6132 54.1934 59.2521C54.1934 57.8792 54.5902 56.7231 55.3825 55.7828C56.1757 54.843 57.1421 54.373 58.2827 54.373C58.7281 54.373 59.124 54.4534 59.4683 54.6122C59.8126 54.7715 60.119 55.02 60.3853 55.3554C60.5261 55.0821 60.7011 54.8668 60.9104 54.7108C61.1193 54.5538 61.3326 54.4753 61.55 54.4753C62.0007 54.4753 62.3329 54.6393 62.5476 54.9668C62.7623 55.2947 62.8696 55.7973 62.8696 56.4751V62.0202C62.8696 63.0404 62.8224 63.8359 62.7266 64.4086C62.6322 64.9808 62.4737 65.4554 62.2501 65.8309C61.8648 66.5087 61.334 67.0235 60.6574 67.3738C59.9814 67.7242 59.1797 67.8993 58.2507 67.8993C57.1154 67.8993 56.1891 67.7087 55.472 67.3262C54.7554 66.945 54.3969 66.4634 54.3969 65.8823C54.3969 65.5353 54.5042 65.247 54.7189 65.0191C54.9327 64.7921 55.2035 64.6781 55.5295 64.6781C55.6871 64.6781 56.0652 64.8 56.6656 65.0457C57.266 65.29 57.8267 65.4124 58.3478 65.4124C58.9993 65.4124 59.5048 65.2106 59.8634 64.8056C60.2214 64.4016 60.4009 63.8293 60.4009 63.0885C60.4009 63.0549 60.3982 63.0002 60.3929 62.9264C60.3867 62.8521 60.3853 62.7947 60.3853 62.7545V62.7545Z" fill="white"/>
<path fill-rule="evenodd" clip-rule="evenodd" d="M66.6607 58.2177H70.1315C70.0994 57.7515 69.9195 57.361 69.5939 57.0476C69.2679 56.7346 68.88 56.5777 68.4293 56.5777C67.983 56.5777 67.6004 56.7253 67.2802 57.0219C66.9591 57.3185 66.7529 57.7169 66.6607 58.2177ZM66.6939 60.0209C66.7527 60.5399 66.9562 60.9439 67.3045 61.2349C67.6523 61.5255 68.1106 61.6703 68.6811 61.6703C69.1755 61.6703 69.7251 61.5208 70.3308 61.2223C70.9369 60.9229 71.3101 60.7734 71.4509 60.7734C71.7609 60.7734 72.0138 60.8729 72.2085 61.0719C72.4044 61.2718 72.502 61.5278 72.502 61.8417C72.502 62.434 72.1087 62.9675 71.3213 63.4439C70.5334 63.9195 69.6071 64.1572 68.5431 64.1572C67.2444 64.1572 66.1612 63.6929 65.2923 62.7643C64.4234 61.8357 63.9883 60.6702 63.9883 59.2689C63.9883 57.8624 64.4114 56.689 65.2558 55.7491C66.1007 54.8098 67.1522 54.3398 68.4126 54.3398C69.6284 54.3398 70.6474 54.7803 71.4674 55.6637C72.2877 56.5465 72.6975 57.626 72.6975 58.9012C72.6975 59.3184 72.608 59.6084 72.4289 59.7738C72.2494 59.9387 71.9043 60.0209 71.3934 60.0209H66.6939V60.0209Z" fill="white"/>
<path fill-rule="evenodd" clip-rule="evenodd" d="M83.746 55.5785C83.8814 55.1973 84.0426 54.918 84.227 54.7419C84.4114 54.5648 84.6425 54.4766 84.9191 54.4766C85.3106 54.4766 85.6224 54.5952 85.8562 54.8311C86.0891 55.0675 86.2067 55.3879 86.2067 55.792C86.2067 55.9232 86.1875 56.0685 86.1492 56.2282C86.1109 56.388 86.057 56.5613 85.9867 56.7491L81.9783 66.7299C81.8095 67.1513 81.639 67.4432 81.4653 67.6049C81.2911 67.7683 81.0796 67.8487 80.8302 67.8487C80.4276 67.8487 80.11 67.73 79.8766 67.4899C79.6428 67.2508 79.5261 66.9261 79.5261 66.5165C79.5261 66.3623 79.5453 66.2054 79.5836 66.0466C79.621 65.8868 79.6749 65.7275 79.7461 65.5678L80.8302 63.107L78.1735 56.6122C78.1299 56.5099 78.0978 56.3978 78.076 56.2754C78.0542 56.1535 78.0439 56.0092 78.0439 55.8438C78.0439 55.4561 78.1655 55.1315 78.4091 54.8699C78.6545 54.6078 78.9556 54.4766 79.3146 54.4766C79.6299 54.4766 79.8864 54.5705 80.0837 54.7582C80.2819 54.9474 80.4708 55.2968 80.6502 55.8092L82.1333 59.9703L83.746 55.5785" fill="white"/>
<path fill-rule="evenodd" clip-rule="evenodd" d="M88.989 59.2133C88.989 59.9196 89.1502 60.4881 89.47 60.9183C89.7902 61.348 90.2084 61.5634 90.7255 61.5634C91.2404 61.5634 91.6586 61.3471 91.9797 60.9141C92.2999 60.4806 92.4598 59.914 92.4598 59.2133C92.4598 58.5355 92.2954 57.9815 91.9676 57.5509C91.6385 57.1216 91.2248 56.9062 90.7255 56.9062C90.2138 56.9062 89.7974 57.1206 89.4745 57.5476C89.1507 57.9745 88.989 58.5299 88.989 59.2133ZM86.2686 59.2512C86.2686 57.8153 86.6885 56.6349 87.5272 55.7095C88.3667 54.7837 89.432 54.3203 90.7258 54.3203C92.0227 54.3203 93.088 54.7818 93.9191 55.7048C94.7497 56.6274 95.1653 57.8097 95.1653 59.2512C95.1653 60.6927 94.7497 61.875 93.9191 62.8013C93.088 63.7271 92.0227 64.19 90.7258 64.19C89.432 64.19 88.3667 63.7252 87.5272 62.7975C86.6885 61.8689 86.2686 60.6866 86.2686 59.2512V59.2512Z" fill="white"/>
<path fill-rule="evenodd" clip-rule="evenodd" d="M96.2471 60.1501V56.4763C96.2471 55.7985 96.3557 55.2959 96.5726 54.968C96.79 54.6405 97.1213 54.4766 97.5667 54.4766C98.0067 54.4766 98.3341 54.6405 98.5478 54.968C98.763 55.2959 98.8699 55.7985 98.8699 56.4763V59.5863C98.8699 60.3206 98.9767 60.841 99.1883 61.1456C99.3994 61.4501 99.745 61.6029 100.222 61.6029C100.701 61.6029 101.045 61.4501 101.257 61.1456C101.469 60.841 101.575 60.3206 101.575 59.5863V56.4763C101.575 55.7985 101.682 55.2959 101.897 54.968C102.112 54.6405 102.444 54.4766 102.895 54.4766C103.335 54.4766 103.661 54.6387 103.872 54.9638C104.085 55.2884 104.19 55.792 104.19 56.4763V60.1501C104.19 61.4604 103.85 62.461 103.172 63.1537C102.493 63.846 101.51 64.1921 100.222 64.1921C98.9358 64.1921 97.9511 63.846 97.2692 63.1537C96.5882 62.461 96.2471 61.4604 96.2471 60.1501" fill="white"/>
<path fill-rule="evenodd" clip-rule="evenodd" d="M105.797 62.022V56.4769C105.797 55.7991 105.904 55.2965 106.119 54.9686C106.334 54.6411 106.664 54.4772 107.109 54.4772C107.375 54.4772 107.612 54.55 107.818 54.6953C108.024 54.8401 108.206 55.0611 108.363 55.3572C108.636 55.0498 108.922 54.8172 109.227 54.6603C109.531 54.5043 109.838 54.4258 110.148 54.4258C110.512 54.4258 110.825 54.5608 111.088 54.8317C111.352 55.1031 111.483 55.4221 111.483 55.7926C111.483 56.3456 111.001 56.8071 110.033 57.1766C109.686 57.3088 109.425 57.4167 109.251 57.5022C108.92 57.6676 108.701 57.8507 108.592 58.0534C108.483 58.2552 108.429 58.6219 108.429 59.1511V62.022C108.429 62.6998 108.32 63.2043 108.103 63.5345C107.886 63.8648 107.554 64.0301 107.109 64.0301C106.664 64.0301 106.334 63.8648 106.119 63.5345C105.904 63.2043 105.797 62.6998 105.797 62.022" fill="white"/>
<path fill-rule="evenodd" clip-rule="evenodd" d="M114.487 64.1771C113.548 64.1771 112.769 63.9804 112.153 63.5871C111.536 63.1938 111.229 62.7066 111.229 62.1255C111.229 61.7789 111.326 61.4851 111.522 61.2459C111.717 61.0068 111.953 60.8872 112.231 60.8872C112.507 60.8872 112.914 61.0208 113.452 61.2889C113.99 61.5561 114.395 61.6902 114.666 61.6902C114.884 61.6902 115.06 61.6355 115.196 61.5281C115.332 61.4192 115.399 61.2852 115.399 61.1264C115.399 60.8526 114.979 60.5397 114.136 60.1865C114.061 60.152 114.007 60.1291 113.974 60.1174C113.006 59.697 112.347 59.2789 111.994 58.8665C111.641 58.4531 111.465 57.9304 111.465 57.2983C111.465 56.4496 111.775 55.7419 112.398 55.1744C113.019 54.6078 113.806 54.3242 114.756 54.3242C115.614 54.3242 116.341 54.5157 116.939 54.8969C117.537 55.2795 117.836 55.7288 117.836 56.2473C117.836 56.572 117.73 56.8448 117.522 57.0676C117.313 57.2899 117.056 57.4006 116.752 57.4006C116.551 57.4006 116.21 57.2899 115.729 57.0676C115.249 56.8448 114.884 56.7345 114.634 56.7345C114.455 56.7345 114.31 56.7784 114.202 56.8667C114.093 56.955 114.039 57.0704 114.039 57.2124C114.039 57.4688 114.386 57.737 115.082 58.0154C115.407 58.1466 115.666 58.2583 115.855 58.3494C116.643 58.7198 117.204 59.1112 117.539 59.5237C117.872 59.9366 118.04 60.4369 118.04 61.0231C118.04 61.9237 117.704 62.6749 117.032 63.2751C116.361 63.8763 115.513 64.1771 114.487 64.1771" fill="white"/>
<path fill-rule="evenodd" clip-rule="evenodd" d="M121.21 58.2177H124.68C124.648 57.7515 124.468 57.361 124.143 57.0476C123.817 56.7346 123.428 56.5777 122.978 56.5777C122.532 56.5777 122.149 56.7253 121.828 57.0219C121.508 57.3185 121.302 57.7169 121.21 58.2177ZM121.243 60.0209C121.303 60.5399 121.507 60.9439 121.855 61.2349C122.202 61.5255 122.661 61.6703 123.231 61.6703C123.725 61.6703 124.276 61.5208 124.881 61.2223C125.486 60.9229 125.86 60.7734 126.002 60.7734C126.311 60.7734 126.563 60.8729 126.759 61.0719C126.955 61.2718 127.052 61.5278 127.052 61.8417C127.052 62.434 126.658 62.9675 125.871 63.4439C125.083 63.9195 124.157 64.1572 123.093 64.1572C121.795 64.1572 120.711 63.6929 119.842 62.7643C118.973 61.8357 118.539 60.6702 118.539 59.2689C118.539 57.8624 118.961 56.689 119.806 55.7491C120.65 54.8098 121.702 54.3398 122.962 54.3398C124.179 54.3398 125.198 54.7803 126.018 55.6637C126.838 56.5465 127.248 57.626 127.248 58.9012C127.248 59.3184 127.158 59.6084 126.979 59.7738C126.8 59.9387 126.455 60.0209 125.944 60.0209H121.243V60.0209Z" fill="white"/>
<path fill-rule="evenodd" clip-rule="evenodd" d="M128.645 51.0503C128.863 50.72 129.194 50.5547 129.64 50.5547C130.074 50.5547 130.398 50.7219 130.613 51.055C130.827 51.3885 130.935 51.8939 130.935 52.5722V62.0219C130.935 62.7053 130.829 63.2107 130.617 63.5391C130.405 63.8656 130.079 64.03 129.64 64.03C129.194 64.03 128.863 63.8647 128.645 63.5344C128.429 63.2042 128.319 62.6997 128.319 62.0219V52.5722C128.319 51.8878 128.429 51.3815 128.645 51.0503Z" fill="white"/>
<path fill-rule="evenodd" clip-rule="evenodd" d="M136.244 54.7251C136.765 54.7251 137.174 54.8335 137.469 55.0497C137.766 55.266 137.914 55.5654 137.914 55.9466C137.914 56.3399 137.773 56.6365 137.49 56.8355C137.208 57.035 136.792 57.1345 136.244 57.1345H135.861V62.0219C135.861 62.6945 135.748 63.1962 135.523 63.5302C135.297 63.8628 134.959 64.03 134.508 64.03C134.063 64.03 133.731 63.8647 133.515 63.5344C133.298 63.2042 133.189 62.6997 133.189 62.0219V57.1345H133.091C132.63 57.1345 132.267 57.028 132.003 56.8145C131.74 56.6001 131.608 56.3114 131.608 55.9466C131.608 55.571 131.74 55.2805 132.003 55.0754C132.267 54.8704 132.662 54.7536 133.189 54.7251C133.189 54.6742 133.185 54.5957 133.18 54.4897C133.175 54.3841 133.172 54.3061 133.172 54.2552C133.172 53.0645 133.409 52.1504 133.881 51.5118C134.354 50.8742 135.029 50.5547 135.909 50.5547C136.447 50.5547 136.871 50.6789 137.18 50.927C137.49 51.175 137.645 51.5118 137.645 51.9388C137.645 52.2755 137.555 52.532 137.376 52.709C137.197 52.8851 136.887 53.007 136.447 53.0757C136.192 53.121 136.03 53.1967 135.963 53.3018C135.894 53.4078 135.861 53.6769 135.861 54.1104V54.7251H136.244Z" fill="white"/>
<path fill-rule="evenodd" clip-rule="evenodd" d="M70.5963 23.6731H81.3159C81.2148 22.2306 80.6616 21.0255 79.6551 20.0571C78.6485 19.0902 77.4492 18.6068 76.0565 18.6068C74.6807 18.6068 73.4983 19.0641 72.5087 19.9787C71.5186 20.8928 70.8817 22.1255 70.5963 23.6731M70.6966 29.2409C70.8814 30.8422 71.5098 32.0913 72.5836 32.9891C73.6569 33.8859 75.075 34.3348 76.8364 34.3348C78.3632 34.3348 80.0609 33.8729 81.9319 32.9498C83.8024 32.0259 84.9555 31.5639 85.3915 31.5639C86.3473 31.5639 87.1276 31.8722 87.7319 32.4874C88.3359 33.1031 88.6378 33.8948 88.6378 34.8627C88.6378 36.6933 87.4215 38.3418 84.9894 39.8113C82.5567 41.2804 79.6966 42.0147 76.4084 42.0147C72.3992 42.0147 69.0523 40.5806 66.3685 37.713C63.6847 34.8454 62.3428 31.2472 62.3428 26.9194C62.3428 22.5729 63.6468 18.948 66.2553 16.0449C68.8634 13.1423 72.1137 11.6914 76.0063 11.6914C79.7634 11.6914 82.909 13.0544 85.4419 15.7815C87.9751 18.5094 89.2417 21.8428 89.2417 25.7843C89.2417 27.0689 88.9647 27.9657 88.4111 28.4758C87.8575 28.9868 86.7918 29.2409 85.216 29.2409H70.6966" fill="white"/>
<path fill-rule="evenodd" clip-rule="evenodd" d="M146.599 25.2575H155.205V10.5579L146.599 25.2575M162.832 32.9904V37.0282C162.832 38.5239 162.475 39.6805 161.763 40.4988C161.05 41.3163 160.048 41.726 158.756 41.726C157.547 41.726 156.654 41.321 156.075 40.5115C155.497 39.7024 155.207 38.4533 155.207 36.7647V32.9904H142.273C140.546 32.9904 139.271 32.7097 138.449 32.1454C137.627 31.5825 137.216 30.7296 137.216 29.5856C137.216 28.3711 137.786 26.8413 138.927 24.9939C139.028 24.8005 139.111 24.6505 139.179 24.545L150.099 6.44049C151.022 4.90929 151.953 3.83212 152.893 3.20712C153.831 2.58305 154.964 2.27148 156.29 2.27148C158.336 2.27148 159.939 3.04923 161.096 4.60566C162.253 6.16303 162.832 8.34072 162.832 11.1383V25.2573H164.064C165.457 25.2573 166.56 25.5876 167.374 26.2471C168.186 26.9067 168.594 27.7998 168.594 28.9256C168.594 30.298 168.183 31.3191 167.361 31.9875C166.539 32.6564 165.289 32.9904 163.612 32.9904H162.832" fill="white"/>
<path fill-rule="evenodd" clip-rule="evenodd" d="M3.19552 13.2484H3.94998V8.92055C3.94998 7.75883 3.97982 6.84842 4.03861 6.18885C4.0974 5.52929 4.26085 4.96174 4.52896 4.48668C4.79752 3.99481 5.18365 3.59403 5.68647 3.28573C6.18974 2.97837 6.7518 2.82422 7.3722 2.82422C8.24468 2.82422 9.03342 3.16708 9.738 3.85327C10.207 4.31152 10.5054 4.86972 10.631 5.52929C10.7566 6.18885 10.8194 7.12542 10.8194 8.33992V13.2484H13.3361C14.3088 13.2484 15.0513 13.4913 15.563 13.9747C16.0743 14.4582 16.3308 15.0785 16.3308 15.8348C16.3308 16.8027 15.9656 17.48 15.2356 17.8677C14.5061 18.2545 13.4617 18.4478 12.1029 18.4478H10.8194V31.6957C10.8194 32.8224 10.8577 33.6894 10.9329 34.2961C11.0082 34.9029 11.2104 35.3953 11.5373 35.7741C11.8642 36.1525 12.3964 36.3416 13.1344 36.3416C13.537 36.3416 14.0821 36.2669 14.7707 36.117C15.4579 35.9675 15.9945 35.8927 16.3811 35.8927C16.9347 35.8927 17.4331 36.1263 17.8785 36.5925C18.322 37.0587 18.5447 37.6342 18.5447 38.3203C18.5447 39.4816 17.9408 40.3701 16.733 40.9862C15.5251 41.6009 13.7891 41.9092 11.5239 41.9092C9.3768 41.9092 7.74987 41.5318 6.64268 40.7746C5.53594 40.0192 4.80954 38.9715 4.46616 37.6342C4.12234 36.2977 3.94998 34.5115 3.94998 32.2773V18.4478H3.04454C2.05493 18.4478 1.30003 18.2017 0.780287 17.7089C0.25965 17.2161 0 16.592 0 15.8348C0 15.0785 0.272121 14.4582 0.817698 13.9747C1.36238 13.4913 2.15514 13.2484 3.19552 13.2484" fill="white"/>
<path fill-rule="evenodd" clip-rule="evenodd" d="M26.5875 26.7629C26.5875 28.8566 27.0739 30.5419 28.0465 31.8162C29.0197 33.0924 30.2859 33.7304 31.846 33.7304C33.3727 33.7304 34.6224 33.0835 35.596 31.7905C36.5682 30.4971 37.055 28.8211 37.055 26.7629C37.055 24.7576 36.5647 23.1208 35.5831 21.8535C34.6015 20.5872 33.3562 19.9543 31.846 19.9543C30.3023 19.9543 29.0406 20.583 28.0595 21.8409C27.0779 23.0989 26.5875 24.7403 26.5875 26.7629M37.3063 38.663C36.4846 39.7197 35.4901 40.5236 34.3246 41.078C33.1582 41.632 31.888 41.909 30.5131 41.909C27.0401 41.909 24.1167 40.4759 21.7425 37.6078C19.3691 34.7402 18.1826 31.1593 18.1826 26.8665C18.1826 22.626 19.4069 19.0545 21.8565 16.1513C24.3056 13.2482 27.2918 11.7969 30.8146 11.7969C32.1899 11.7969 33.4098 12.044 34.4756 12.5359C35.5409 13.0282 36.4846 13.7938 37.3063 14.8322C37.7757 13.9344 38.3382 13.2575 38.992 12.7998C39.6463 12.3425 40.3763 12.1131 41.1815 12.1131C42.5399 12.1131 43.5468 12.6148 44.2011 13.6177C44.8553 14.6206 45.1822 16.178 45.1822 18.2889V35.4171C45.1822 37.5111 44.8509 39.0685 44.1882 40.0891C43.5255 41.1093 42.5229 41.6189 41.1815 41.6189C40.2756 41.6189 39.5118 41.3821 38.8914 40.9066C38.2706 40.4315 37.7423 39.6842 37.3063 38.663" fill="white"/>
<path fill-rule="evenodd" clip-rule="evenodd" d="M50.5537 6.22852C50.5537 4.11622 50.8886 2.55092 51.5602 1.5298C52.231 0.510091 53.2544 0 54.6302 0C55.9725 0 56.9741 0.514762 57.6369 1.54335C58.2996 2.57287 58.6309 4.13444 58.6309 6.22852V35.4167C58.6309 37.5281 58.304 39.0901 57.6498 40.1014C56.9951 41.1137 55.989 41.6186 54.6302 41.6186C53.2544 41.6186 52.231 41.109 51.5602 40.0888C50.8886 39.0682 50.5537 37.5108 50.5537 35.4167V6.22852" fill="white"/>
<path fill-rule="evenodd" clip-rule="evenodd" d="M92.2988 35.4169V18.2887C92.2988 16.196 92.6293 14.6433 93.292 13.6311C93.9547 12.6193 94.9733 12.113 96.349 12.113C97.1712 12.113 97.9011 12.3376 98.5384 12.7865C99.1758 13.2354 99.7378 13.917 100.225 14.832C101.096 13.8282 102.103 13.0995 103.244 12.6417C104.384 12.1835 105.769 11.9551 107.396 11.9551C110.599 11.9551 113.049 12.9141 114.744 14.832C116.437 16.7496 117.285 19.5387 117.285 23.1981V35.4169C117.285 37.511 116.949 39.0684 116.278 40.089C115.607 41.1092 114.584 41.6188 113.208 41.6188C111.833 41.6188 110.809 41.1092 110.139 40.089C109.467 39.0684 109.132 37.511 109.132 35.4169V25.7845C109.132 23.4088 108.793 21.7155 108.113 20.7037C107.433 19.6919 106.314 19.1865 104.754 19.1865C103.278 19.1865 102.187 19.7101 101.483 20.7565C100.778 21.8028 100.426 23.4443 100.426 25.6789V35.4169C100.426 37.511 100.09 39.0684 99.4194 40.089C98.7478 41.1092 97.7248 41.6188 96.349 41.6188C94.9733 41.6188 93.9547 41.1092 93.292 40.089C92.6293 39.0684 92.2988 37.511 92.2988 35.4169" fill="white"/>
<path fill-rule="evenodd" clip-rule="evenodd" d="M123.262 13.2484H124.016V8.92055C124.016 7.75883 124.046 6.84842 124.104 6.18885C124.163 5.52929 124.327 4.96174 124.595 4.48668C124.864 3.99481 125.249 3.59403 125.753 3.28573C126.256 2.97837 126.818 2.82422 127.439 2.82422C128.311 2.82422 129.099 3.16708 129.804 3.85327C130.273 4.31152 130.571 4.86972 130.697 5.52929C130.823 6.18885 130.886 7.12542 130.886 8.33992V13.2484H133.402C134.375 13.2484 135.117 13.4913 135.629 13.9747C136.141 14.4582 136.396 15.0785 136.396 15.8348C136.396 16.8027 136.032 17.48 135.302 17.8677C134.572 18.2545 133.528 18.4478 132.169 18.4478H130.886V31.6957C130.886 32.8224 130.924 33.6894 130.999 34.2961C131.075 34.9029 131.276 35.3953 131.604 35.7741C131.93 36.1525 132.462 36.3416 133.201 36.3416C133.603 36.3416 134.148 36.2669 134.837 36.117C135.524 35.9675 136.061 35.8927 136.447 35.8927C137.001 35.8927 137.499 36.1263 137.944 36.5925C138.388 37.0587 138.611 37.6342 138.611 38.3203C138.611 39.4816 138.008 40.3701 136.799 40.9862C135.591 41.6009 133.855 41.9092 131.59 41.9092C129.443 41.9092 127.816 41.5318 126.709 40.7746C125.602 40.0192 124.876 38.9715 124.532 37.6342C124.188 36.2977 124.016 34.5115 124.016 32.2773V18.4478H123.11C122.121 18.4478 121.365 18.2017 120.846 17.7089C120.326 17.2161 120.065 16.592 120.065 15.8348C120.065 15.0785 120.338 14.4582 120.884 13.9747C121.429 13.4913 122.221 13.2484 123.262 13.2484" fill="white"/>
<path fill-rule="evenodd" clip-rule="evenodd" d="M172.582 13.2484H173.337V8.92055C173.337 7.75883 173.366 6.84842 173.424 6.18885C173.483 5.52929 173.647 4.96174 173.915 4.48668C174.183 3.99481 174.569 3.59403 175.073 3.28573C175.576 2.97837 176.138 2.82422 176.759 2.82422C177.63 2.82422 178.419 3.16708 179.124 3.85327C179.594 4.31152 179.892 4.86972 180.017 5.52929C180.143 6.18885 180.206 7.12542 180.206 8.33992V13.2484H182.722C183.695 13.2484 184.437 13.4913 184.949 13.9747C185.461 14.4582 185.717 15.0785 185.717 15.8348C185.717 16.8027 185.352 17.48 184.622 17.8677C183.892 18.2545 182.848 18.4478 181.489 18.4478H180.206V31.6957C180.206 32.8224 180.243 33.6894 180.319 34.2961C180.395 34.9029 180.596 35.3953 180.923 35.7741C181.25 36.1525 181.782 36.3416 182.521 36.3416C182.923 36.3416 183.469 36.2669 184.157 36.117C184.844 35.9675 185.381 35.8927 185.767 35.8927C186.32 35.8927 186.82 36.1263 187.264 36.5925C187.709 37.0587 187.931 37.6342 187.931 38.3203C187.931 39.4816 187.327 40.3701 186.119 40.9862C184.911 41.6009 183.175 41.9092 180.911 41.9092C178.763 41.9092 177.136 41.5318 176.029 40.7746C174.922 40.0192 174.196 38.9715 173.852 37.6342C173.509 36.2977 173.337 34.5115 173.337 32.2773V18.4478H172.431C171.44 18.4478 170.686 18.2017 170.166 17.7089C169.646 17.2161 169.386 16.592 169.386 15.8348C169.386 15.0785 169.659 14.4582 170.203 13.9747C170.749 13.4913 171.541 13.2484 172.582 13.2484" fill="white"/>
<path fill-rule="evenodd" clip-rule="evenodd" d="M195.975 26.7629C195.975 28.8566 196.462 30.5419 197.434 31.8162C198.407 33.0924 199.674 33.7304 201.234 33.7304C202.76 33.7304 204.011 33.0835 204.984 31.7905C205.956 30.4971 206.442 28.8211 206.442 26.7629C206.442 24.7576 205.952 23.1208 204.971 21.8535C203.99 20.5872 202.744 19.9543 201.234 19.9543C199.691 19.9543 198.428 20.583 197.447 21.8409C196.466 23.0989 195.975 24.7403 195.975 26.7629M206.693 38.663C205.869 39.7197 204.876 40.5236 203.71 41.078C202.544 41.632 201.273 41.909 199.898 41.909C196.425 41.909 193.503 40.4759 191.129 37.6078C188.755 34.7402 187.568 31.1593 187.568 26.8665C187.568 22.626 188.792 19.0545 191.242 16.1513C193.692 13.2482 196.678 11.7969 200.2 11.7969C201.576 11.7969 202.796 12.044 203.861 12.5359C204.927 13.0282 205.869 13.7938 206.693 14.8322C207.161 13.9344 207.724 13.2575 208.378 12.7998C209.032 12.3425 209.762 12.1131 210.567 12.1131C211.926 12.1131 212.932 12.6148 213.587 13.6177C214.241 14.6206 214.568 16.178 214.568 18.2889V35.4171C214.568 37.5111 214.237 39.0685 213.574 40.0891C212.911 41.1093 211.909 41.6189 210.567 41.6189C209.661 41.6189 208.898 41.3821 208.277 40.9066C207.656 40.4315 207.128 39.6842 206.693 38.663" fill="white"/>
<path fill-rule="evenodd" clip-rule="evenodd" d="M219.94 6.22852C219.94 4.11622 220.276 2.55092 220.947 1.5298C221.618 0.510091 222.641 0 224.017 0C225.36 0 226.361 0.514762 227.024 1.54335C227.686 2.57287 228.018 4.13444 228.018 6.22852V35.4167C228.018 37.5281 227.691 39.0901 227.036 40.1014C226.383 41.1137 225.376 41.6186 224.017 41.6186C222.641 41.6186 221.618 41.109 220.947 40.0888C220.276 39.0682 219.94 37.5108 219.94 35.4167V6.22852" fill="white"/>
<path fill-rule="evenodd" clip-rule="evenodd" d="M239.981 23.6731H250.701C250.599 22.2306 250.047 21.0255 249.04 20.0571C248.033 19.0902 246.834 18.6068 245.442 18.6068C244.065 18.6068 242.883 19.0641 241.893 19.9787C240.903 20.8928 240.266 22.1255 239.981 23.6731M240.081 29.2409C240.266 30.8422 240.894 32.0913 241.969 32.9891C243.042 33.8859 244.46 34.3348 246.221 34.3348C247.747 34.3348 249.446 33.8729 251.316 32.9498C253.187 32.0259 254.34 31.5639 254.776 31.5639C255.732 31.5639 256.513 31.8722 257.116 32.4874C257.721 33.1031 258.023 33.8948 258.023 34.8627C258.023 36.6933 256.806 38.3418 254.374 39.8113C251.942 41.2804 249.08 42.0147 245.793 42.0147C241.784 42.0147 238.437 40.5806 235.753 37.713C233.069 34.8454 231.728 31.2472 231.728 26.9194C231.728 22.5729 233.032 18.948 235.641 16.0449C238.248 13.1423 241.499 11.6914 245.391 11.6914C249.149 11.6914 252.294 13.0544 254.827 15.7815C257.36 18.5094 258.627 21.8428 258.627 25.7843C258.627 27.0689 258.35 27.9657 257.795 28.4758C257.243 28.9868 256.177 29.2409 254.6 29.2409H240.081" fill="white"/>
<path fill-rule="evenodd" clip-rule="evenodd" d="M261.686 35.4169V18.2887C261.686 16.196 262.017 14.6433 262.68 13.6311C263.342 12.6193 264.361 12.113 265.737 12.113C266.559 12.113 267.288 12.3376 267.926 12.7865C268.564 13.2354 269.125 13.917 269.612 14.832C270.484 13.8282 271.491 13.0995 272.631 12.6417C273.772 12.1835 275.156 11.9551 276.784 11.9551C279.988 11.9551 282.436 12.9141 284.131 14.832C285.825 16.7496 286.673 19.5387 286.673 23.1981V35.4169C286.673 37.511 286.337 39.0684 285.666 40.089C284.994 41.1092 283.971 41.6188 282.596 41.6188C281.22 41.6188 280.197 41.1092 279.527 40.089C278.855 39.0684 278.52 37.511 278.52 35.4169V25.7845C278.52 23.4088 278.18 21.7155 277.501 20.7037C276.821 19.6919 275.702 19.1865 274.141 19.1865C272.665 19.1865 271.575 19.7101 270.87 20.7565C270.166 21.8028 269.814 23.4443 269.814 25.6789V35.4169C269.814 37.511 269.478 39.0684 268.807 40.089C268.136 41.1092 267.113 41.6188 265.737 41.6188C264.361 41.6188 263.342 41.1092 262.68 40.089C262.017 39.0684 261.686 37.511 261.686 35.4169" fill="white"/>
<path fill-rule="evenodd" clip-rule="evenodd" d="M292.651 13.2484H293.405V8.92055C293.405 7.75883 293.434 6.84842 293.494 6.18885C293.552 5.52929 293.715 4.96174 293.984 4.48668C294.252 3.99481 294.639 3.59403 295.142 3.28573C295.645 2.97837 296.207 2.82422 296.828 2.82422C297.699 2.82422 298.489 3.16708 299.193 3.85327C299.663 4.31152 299.96 4.86972 300.086 5.52929C300.212 6.18885 300.275 7.12542 300.275 8.33992V13.2484H302.791C303.764 13.2484 304.506 13.4913 305.019 13.9747C305.53 14.4582 305.785 15.0785 305.785 15.8348C305.785 16.8027 305.42 17.48 304.691 17.8677C303.962 18.2545 302.917 18.4478 301.558 18.4478H300.275V31.6957C300.275 32.8224 300.313 33.6894 300.388 34.2961C300.464 34.9029 300.665 35.3953 300.992 35.7741C301.319 36.1525 301.851 36.3416 302.59 36.3416C302.993 36.3416 303.538 36.2669 304.226 36.117C304.913 35.9675 305.45 35.8927 305.836 35.8927C306.39 35.8927 306.889 36.1263 307.333 36.5925C307.778 37.0587 308 37.6342 308 38.3203C308 39.4816 307.396 40.3701 306.188 40.9862C304.98 41.6009 303.244 41.9092 300.98 41.9092C298.832 41.9092 297.205 41.5318 296.098 40.7746C294.991 40.0192 294.266 38.9715 293.922 37.6342C293.577 36.2977 293.405 34.5115 293.405 32.2773V18.4478H292.5C291.51 18.4478 290.755 18.2017 290.235 17.7089C289.715 17.2161 289.455 16.592 289.455 15.8348C289.455 15.0785 289.727 14.4582 290.273 13.9747C290.818 13.4913 291.611 13.2484 292.651 13.2484" fill="white"/>
</svg>
