<svg width="48" height="48" viewBox="0 0 48 48" fill="none" xmlns="http://www.w3.org/2000/svg">
<path d="M36 21.9375C35.5982 22.3795 35.1429 22.7679 34.6607 23.1027C32.4241 24.6161 30.1741 26.1429 27.9911 27.7232C26.8661 28.5536 25.4732 29.5714 24.0134 29.5714H24H23.9866C22.5268 29.5714 21.1339 28.5536 20.0089 27.7232C17.8259 26.1295 15.5759 24.6161 13.3527 23.1027C12.8571 22.7679 12.4018 22.3795 12 21.9375V32.5714C12 33.75 12.9643 34.7143 14.1429 34.7143H33.8571C35.0357 34.7143 36 33.75 36 32.5714V21.9375ZM36 18C36 16.8214 35.0223 15.8571 33.8571 15.8571H14.1429C12.7098 15.8571 12 16.9821 12 18.2946C12 19.5134 13.3527 21.0268 14.3036 21.6696C16.3795 23.1161 18.4821 24.5625 20.558 26.0223C21.4286 26.625 22.9018 27.8571 23.9866 27.8571H24H24.0134C25.0982 27.8571 26.5714 26.625 27.442 26.0223C29.5179 24.5625 31.6205 23.1161 33.7098 21.6696C34.8884 20.8527 36 19.5 36 18Z" fill="white"/>
</svg>
