<svg width="48" height="48" viewBox="0 0 48 48" fill="none" xmlns="http://www.w3.org/2000/svg">
<g clip-path="url(#clip0)">
<path d="M48 16.875C47.1964 17.7589 46.2857 18.5357 45.3214 19.2054C40.8482 22.2321 36.3482 25.2857 31.9821 28.4464C29.7321 30.1071 26.9464 32.1429 24.0268 32.1429H24H23.9732C21.0536 32.1429 18.2679 30.1071 16.0179 28.4464C11.6518 25.2589 7.15179 22.2321 2.70536 19.2054C1.71429 18.5357 0.803571 17.7589 0 16.875V38.1429C0 40.5 1.92857 42.4286 4.28571 42.4286H43.7143C46.0714 42.4286 48 40.5 48 38.1429V16.875ZM48 9C48 6.64285 46.0446 4.71428 43.7143 4.71428H4.28571C1.41964 4.71428 0 6.96428 0 9.58928C0 12.0268 2.70536 15.0536 4.60714 16.3393C8.75893 19.2321 12.9643 22.125 17.1161 25.0446C18.8571 26.25 21.8036 28.7143 23.9732 28.7143H24H24.0268C26.1964 28.7143 29.1429 26.25 30.8839 25.0446C35.0357 22.125 39.2411 19.2321 43.4196 16.3393C45.7768 14.7054 48 12 48 9Z" fill="white"/>
</g>
<defs>
<clipPath id="clip0">
<rect width="48" height="48" fill="white"/>
</clipPath>
</defs>
</svg>
